<?xml version="1.0" encoding="utf-8"?>
<!-- Generator: Adobe Illustrator 26.5.0, SVG Export Plug-In . SVG Version: 6.00 Build 0)  -->
<svg version="1.1" id="Layer_1" xmlns="http://www.w3.org/2000/svg" xmlns:xlink="http://www.w3.org/1999/xlink" x="0px" y="0px"
	 viewBox="0 0 1920 1080" style="enable-background:new 0 0 1920 1080;" xml:space="preserve">
<style type="text/css">
	.st0{fill:none;stroke:url(#SVGID_1_);stroke-width:2;stroke-miterlimit:10;}
	.st1{fill:none;stroke:url(#SVGID_00000152954595726519804790000010916446133115200139_);stroke-width:2;stroke-miterlimit:10;}
	.st2{fill:none;stroke:url(#SVGID_00000131362418676625296890000016746919035778717354_);stroke-width:2;stroke-miterlimit:10;}
	.st3{fill:none;stroke:url(#SVGID_00000052799201640718734050000004926688768748442010_);stroke-width:2;stroke-miterlimit:10;}
	.st4{fill:none;stroke:url(#SVGID_00000042700342216507071770000007756893556348050847_);stroke-width:2;stroke-miterlimit:10;}
	.st5{fill:none;stroke:url(#SVGID_00000103981940858551340770000005998586558193417871_);stroke-width:2;stroke-miterlimit:10;}
	.st6{fill:none;stroke:url(#SVGID_00000140709786317541605800000016325085756437939645_);stroke-width:2;stroke-miterlimit:10;}
	.st7{fill:none;stroke:url(#SVGID_00000093147534832392290460000008122154687003219593_);stroke-width:2;stroke-miterlimit:10;}
	.st8{fill:none;stroke:url(#SVGID_00000143606173430078247640000014967709647121863083_);stroke-width:2;stroke-miterlimit:10;}
	.st9{fill:none;stroke:url(#SVGID_00000124154735938052543700000003907846685912460205_);stroke-width:2;stroke-miterlimit:10;}
	.st10{fill:none;stroke:url(#SVGID_00000176009875602254761480000015447388079171417995_);stroke-width:2;stroke-miterlimit:10;}
	.st11{fill:none;stroke:url(#SVGID_00000081643893499113009260000008355587353671553702_);stroke-width:2;stroke-miterlimit:10;}
	.st12{fill:none;stroke:url(#SVGID_00000070835802653598634280000004880260889264692108_);stroke-width:2;stroke-miterlimit:10;}
	.st13{fill:none;stroke:url(#SVGID_00000014603740893218511190000017158478011249494953_);stroke-width:2;stroke-miterlimit:10;}
	.st14{fill:none;stroke:url(#SVGID_00000167374654040050879880000005908963156950171803_);stroke-width:2;stroke-miterlimit:10;}
</style>
<g>
	<linearGradient id="SVGID_1_" gradientUnits="userSpaceOnUse" x1="435.7059" y1="540" x2="1484.2941" y2="540">
		<stop  offset="0" style="stop-color:#F91F39"/>
		<stop  offset="1" style="stop-color:#F8113B"/>
	</linearGradient>
	<path class="st0" d="M752.9,343.6c31.6-56.5-44.5-218.3-44.9-250C706.9-9.9,840.4,7.3,914.4,51.1c75.4,44.7,138.6,90.8,129,216.9
		c-10.5,137.9,132.4,48.3,217.3,96.9c104.6,59.9,72.1,147.1,130.6,211c285.2,311.7-170.4,104.5-309.7,195.2
		c-74.7,48.6-79.5,246.2-153.2,284.7c-97.3,50.7-376.1-171.6-274.5-256.8c128.7-107.8-255.7-309-214-396.9
		C481.6,314.3,713.8,413.5,752.9,343.6z"/>
	
		<linearGradient id="SVGID_00000002371557434581258060000008225386951651891841_" gradientUnits="userSpaceOnUse" x1="469.7767" y1="540.1298" x2="1449.4246" y2="540.1298">
		<stop  offset="0" style="stop-color:#F92E36"/>
		<stop  offset="1" style="stop-color:#F91337"/>
	</linearGradient>
	
		<path style="fill:none;stroke:url(#SVGID_00000002371557434581258060000008225386951651891841_);stroke-width:2;stroke-miterlimit:10;" d="
		M765.7,356.4c29.4-52.6-41.4-202.9-41.8-232.6c-1-96.9,123.9-82,193.2-40.9c70.6,41.8,129.1,86.1,120.8,203.9
		c-9.2,128.6,124,44.3,203.5,89.8c97.9,56.1,68,139.2,122.2,199c263.6,290.9-159.5,96.4-289.9,181.2
		c-69.9,45.5-74.3,229.5-143.4,265.5c-91.1,47.5-351.2-159.7-257.2-239.4C792,681.9,434.8,494.3,473.8,412
		C512.8,329.7,729.3,421.9,765.7,356.4z"/>
	
		<linearGradient id="SVGID_00000139280369725728246260000013505984807112028034_" gradientUnits="userSpaceOnUse" x1="503.8473" y1="540.2552" x2="1414.557" y2="540.2552">
		<stop  offset="0" style="stop-color:#FA3D34"/>
		<stop  offset="1" style="stop-color:#F91633"/>
	</linearGradient>
	
		<path style="fill:none;stroke:url(#SVGID_00000139280369725728246260000013505984807112028034_);stroke-width:2;stroke-miterlimit:10;" d="
		M778.5,369.1c27-48.9-38.3-187.6-38.6-215.2c-1-90.3,115.4-77.6,180-39.4c65.8,39,119.6,81.5,112.7,190.9
		c-7.9,119.2,115.6,40.3,189.7,82.8c91.3,52.2,64,131.4,113.8,187c241.9,270-148.6,88.2-270.2,167.2
		c-65.2,42.4-69.2,212.8-133.6,246.3c-84.9,44.2-326.2-147.7-239.9-222c109.1-93.9-220.9-268.1-184.7-344.7
		C543.9,345.1,744.7,430.2,778.5,369.1z"/>
	
		<linearGradient id="SVGID_00000010310875963605361180000009863173380325228982_" gradientUnits="userSpaceOnUse" x1="537.9177" y1="540.3755" x2="1379.6923" y2="540.3755">
		<stop  offset="0" style="stop-color:#FA4C31"/>
		<stop  offset="1" style="stop-color:#FA182E"/>
	</linearGradient>
	
		<path style="fill:none;stroke:url(#SVGID_00000010310875963605361180000009863173380325228982_);stroke-width:2;stroke-miterlimit:10;" d="
		M791.2,381.8c24.7-45.1-35.2-172.3-35.5-197.9c-0.9-83.7,106.9-73.3,166.8-37.8c61,36.1,110.3,76.9,104.5,177.9
		c-6.3,109.9,107.2,36.4,175.9,75.7c84.7,48.4,60,123.5,105.5,175c220.3,249.1-137.7,80-250.5,153.2
		c-60.5,39.3-64.1,196-123.8,227.1c-78.8,41-301.3-135.7-222.6-204.6c99.4-87-203.5-247.6-170-318.7
		C575,360.5,760.1,438.6,791.2,381.8z"/>
	
		<linearGradient id="SVGID_00000134945366800002601050000011279087166067009409_" gradientUnits="userSpaceOnUse" x1="571.9877" y1="540.489" x2="1344.8312" y2="540.489">
		<stop  offset="0" style="stop-color:#FB5C2F"/>
		<stop  offset="1" style="stop-color:#FA1A2A"/>
	</linearGradient>
	
		<path style="fill:none;stroke:url(#SVGID_00000134945366800002601050000011279087166067009409_);stroke-width:2;stroke-miterlimit:10;" d="
		M804,394.5c22.4-41.3-32.1-156.9-32.4-180.5c-0.8-77,98.5-68.9,153.7-36.3c56.3,33.3,100.9,72.2,96.4,164.8
		c-4.9,100.6,98.7,32.4,162.1,68.6c78.1,44.6,55.9,115.7,97.1,162.9c198.6,228.2-126.8,71.8-230.8,139.3
		c-55.7,36.1-58.9,179.3-114,207.9C863.5,959,659.8,797.5,730.8,734.1c89.6-80-186.1-227.1-155.4-292.6
		C606.2,375.9,775.5,446.9,804,394.5z"/>
	
		<linearGradient id="SVGID_00000144314693904175253120000015032434721022148226_" gradientUnits="userSpaceOnUse" x1="606.0574" y1="540.5941" x2="1309.9756" y2="540.5941">
		<stop  offset="0" style="stop-color:#FB6B2C"/>
		<stop  offset="1" style="stop-color:#FB1C26"/>
	</linearGradient>
	
		<path style="fill:none;stroke:url(#SVGID_00000144314693904175253120000015032434721022148226_);stroke-width:2;stroke-miterlimit:10;" d="
		M816.8,407.3c20.1-37.5-29-141.6-29.2-163.1c-0.8-70.4,90-64.6,140.5-34.7c51.5,30.4,91.4,67.6,88.2,151.8
		c-3.5,91.2,90.3,28.5,148.3,61.5c71.4,40.7,51.9,107.8,88.7,150.9c177,207.2-115.9,63.7-211.1,125.3c-51,33-53.8,162.6-104.1,188.7
		c-66.4,34.5-251.4-111.7-188-169.7c79.8-73.1-168.8-206.6-140.8-266.5C637.3,391.3,791,455.3,816.8,407.3z"/>
	
		<linearGradient id="SVGID_00000016035640593252206540000005311411650856276143_" gradientUnits="userSpaceOnUse" x1="640.1266" y1="540.688" x2="1275.1281" y2="540.688">
		<stop  offset="0" style="stop-color:#FC7A2A"/>
		<stop  offset="1" style="stop-color:#FB1F22"/>
	</linearGradient>
	
		<path style="fill:none;stroke:url(#SVGID_00000016035640593252206540000005311411650856276143_);stroke-width:2;stroke-miterlimit:10;" d="
		M829.5,420c17.9-33.7-25.9-126.3-26.1-145.8c-0.7-63.8,81.5-60.2,127.3-33.2c46.7,27.5,82,62.9,80.1,138.8
		c-2.1,81.9,81.9,24.5,134.5,54.4c64.8,36.9,47.9,99.9,80.4,138.9c155.3,186.3-105,55.5-191.4,111.3
		C988.1,714.4,985.7,830.3,940,854c-60.3,31.2-226.4-99.7-170.7-152.3c70.1-66.1-151.4-186.1-126.1-240.4
		C668.4,406.7,806.4,463.6,829.5,420z"/>
	
		<linearGradient id="SVGID_00000024001924045392708290000002539382999206174615_" gradientUnits="userSpaceOnUse" x1="674.1951" y1="540.7673" x2="1240.2931" y2="540.7673">
		<stop  offset="0" style="stop-color:#FC8927"/>
		<stop  offset="1" style="stop-color:#FC211E"/>
	</linearGradient>
	
		<path style="fill:none;stroke:url(#SVGID_00000024001924045392708290000002539382999206174615_);stroke-width:2;stroke-miterlimit:10;" d="
		M842.3,432.7c15.6-29.9-22.8-110.9-23-128.4c-0.6-57.1,73-55.9,114.2-31.6c41.9,24.7,72.6,58.3,71.9,125.8
		c-0.7,72.5,73.5,20.5,120.7,47.4c58.2,33.1,43.8,92,72,126.8c133.7,165.3-94.2,47.3-171.6,97.3c-41.5,26.8-43.5,129.1-84.5,150.3
		c-54.1,28-201.5-87.7-153.4-134.9c60.3-59.1-134-165.6-111.5-214.3C699.6,422.1,821.8,472,842.3,432.7z"/>
	
		<linearGradient id="SVGID_00000120531247572262907980000015682928136122616474_" gradientUnits="userSpaceOnUse" x1="708.2625" y1="540.8264" x2="1205.4788" y2="540.8264">
		<stop  offset="0" style="stop-color:#FC9824"/>
		<stop  offset="1" style="stop-color:#FC2319"/>
	</linearGradient>
	
		<path style="fill:none;stroke:url(#SVGID_00000120531247572262907980000015682928136122616474_);stroke-width:2;stroke-miterlimit:10;" d="
		M855,445.5c13.3-26.1-19.7-95.6-19.9-111.1c-0.6-50.5,64.5-51.5,101-30.1c37.2,21.8,63.1,53.6,63.7,112.8
		c0.7,63.2,65.1,16.6,107,40.3c51.5,29.2,39.7,84.1,63.6,114.8c112.1,144.2-83.3,39.1-151.9,83.3c-36.8,23.7-38.4,112.3-74.7,131.1
		c-47.9,24.8-176.6-75.7-136.1-117.5c50.5-52.1-116.6-145.1-96.9-188.3C730.7,437.5,837.3,480.3,855,445.5z"/>
	
		<linearGradient id="SVGID_00000091713322531142057850000013872215206465599140_" gradientUnits="userSpaceOnUse" x1="742.3282" y1="540.8573" x2="1170.701" y2="540.8573">
		<stop  offset="0" style="stop-color:#FDA722"/>
		<stop  offset="1" style="stop-color:#FC2615"/>
	</linearGradient>
	
		<path style="fill:none;stroke:url(#SVGID_00000091713322531142057850000013872215206465599140_);stroke-width:2;stroke-miterlimit:10;" d="
		M867.8,458.2c11-22.2-16.6-80.3-16.7-93.7c-0.5-43.9,56.1-47.1,87.8-28.5c32.4,18.9,53.6,49,55.6,99.8
		c2.1,53.8,56.7,12.6,93.2,33.2c44.9,25.4,35.7,76.1,55.3,102.8c90.5,122.9-72.4,30.9-132.2,69.4c-32.1,20.6-33.3,95.6-64.9,111.9
		C904,774.5,794.1,689.4,827,652.9c40.7-45.1-99.2-124.6-82.2-162.2C761.8,452.9,852.7,488.7,867.8,458.2z"/>
	
		<linearGradient id="SVGID_00000178202428594687167840000010797634513563245467_" gradientUnits="userSpaceOnUse" x1="776.3911" y1="540.8477" x2="1135.9949" y2="540.8477">
		<stop  offset="0" style="stop-color:#FDB61F"/>
		<stop  offset="1" style="stop-color:#FD2811"/>
	</linearGradient>
	
		<path style="fill:none;stroke:url(#SVGID_00000178202428594687167840000010797634513563245467_);stroke-width:2;stroke-miterlimit:10;" d="
		M880.6,470.9c8.8-18.4-13.5-64.9-13.6-76.3c-0.4-37.3,47.6-42.8,74.7-27c27.6,16.1,44.2,44.3,47.4,86.8
		c3.4,44.4,48.3,8.6,79.4,26.1c38.3,21.6,31.6,68.2,46.9,90.8c68.9,101.5-61.5,22.8-112.5,55.4c-27.3,17.5-28.1,78.9-55.1,92.7
		c-35.6,18.3-126.9-51.5-101.5-82.7c30.8-37.9-81.8-104.1-67.6-136.1C793,468.3,868.2,497,880.6,470.9z"/>
	
		<linearGradient id="SVGID_00000008107630542640418920000002561132096022610312_" gradientUnits="userSpaceOnUse" x1="810.4489" y1="540.7784" x2="1101.4478" y2="540.7784">
		<stop  offset="0" style="stop-color:#FEC61D"/>
		<stop  offset="1" style="stop-color:#FD2A0D"/>
	</linearGradient>
	
		<path style="fill:none;stroke:url(#SVGID_00000008107630542640418920000002561132096022610312_);stroke-width:2;stroke-miterlimit:10;" d="
		M893.3,483.7c6.5-14.6-10.4-49.6-10.5-59c-0.3-30.6,39.1-38.4,61.5-25.4c22.8,13.2,34.6,39.6,39.3,73.8c4.7,35,39.9,4.7,65.6,19.1
		c31.7,17.7,27.4,60.1,38.5,78.7c47.5,79.7-50.6,14.6-92.8,41.4c-22.6,14.4-23,62.1-45.3,73.5c-29.5,15-102.1-39.2-84.2-65.3
		c21-30.6-64.5-83.6-53-110C824.1,483.7,883.6,505.4,893.3,483.7z"/>
	
		<linearGradient id="SVGID_00000078765385996686683630000006546259922470129062_" gradientUnits="userSpaceOnUse" x1="844.496" y1="540.6226" x2="1070.8531" y2="540.6226">
		<stop  offset="0" style="stop-color:#FED51A"/>
		<stop  offset="1" style="stop-color:#FE2C08"/>
	</linearGradient>
	
		<path style="fill:none;stroke:url(#SVGID_00000078765385996686683630000006546259922470129062_);stroke-width:2;stroke-miterlimit:10;" d="
		M906.1,496.4c4.3-10.7-7.3-34.3-7.4-41.6c-0.3-24,30.6-34.1,48.3-23.9c18,10.4,25.1,34.9,31.1,60.7c6,25.6,31.5,0.7,51.8,12
		c25,13.9,26,50.8,30.2,66.7c36.5,51.3-39.7,6.4-73.1,27.4c-17.9,11.3-17.9,45.4-35.5,54.3c-23.3,11.8-77.3-26.7-66.9-47.8
		c11.3-23-47.1-63.1-38.3-84C855.3,499.1,899.1,513.8,906.1,496.4z"/>
	
		<linearGradient id="SVGID_00000111162546390033704820000014780095347229021364_" gradientUnits="userSpaceOnUse" x1="878.5165" y1="540.3571" x2="1036.8954" y2="540.3571">
		<stop  offset="0" style="stop-color:#FFE418"/>
		<stop  offset="1" style="stop-color:#FE2F04"/>
	</linearGradient>
	
		<path style="fill:none;stroke:url(#SVGID_00000111162546390033704820000014780095347229021364_);stroke-width:2;stroke-miterlimit:10;" d="
		M918.9,509.1c2.2-6.8-4.2-18.9-4.2-24.2c-0.2-17.4,22.2-29.7,35.2-22.3c13.3,7.5,15.3,30.2,23,47.7c7,16.2,23.1-3.2,38,4.9
		c18.4,10,22.2,42.7,21.8,54.7c15.8,29.6-28.8-1.8-53.3,13.4c-13.1,8.1-12.7,28.7-25.7,35.1c-17.1,8.5-52.2-13.5-49.6-30.4
		c2.3-14.7-29.7-42.6-23.7-57.9C886.4,514.4,914.7,522.3,918.9,509.1z"/>
	
		<linearGradient id="SVGID_00000082333549187140280580000009064231194111969922_" gradientUnits="userSpaceOnUse" x1="912.3547" y1="540" x2="1007.6453" y2="540">
		<stop  offset="0" style="stop-color:#FFF315"/>
		<stop  offset="1" style="stop-color:#FF3100"/>
	</linearGradient>
	
		<path style="fill:none;stroke:url(#SVGID_00000082333549187140280580000009064231194111969922_);stroke-width:2;stroke-miterlimit:10;" d="
		M931.6,521.9c0.3-2.9-1.1-3.6-1.1-6.9c-0.1-10.7,13.7-25.3,22-20.8c8.5,4.6,5.1,25.8,14.8,34.7c7.7,7.1,14.6-7.2,24.2-2.2
		c11.8,6.2,18.4,34.7,13.5,42.7c-4.9,7.9-17.9-9.9-33.6-0.5c-8.4,5-7.6,11.9-15.9,15.9c-11,5.3-24.1-1.1-32.3-13
		c-4.8-6.9-12.3-22.1-9-31.8C917.5,529.8,930.8,530.9,931.6,521.9z"/>
</g>
</svg>
